<?xml version="1.0" encoding="utf-8"?><svg xmlns="http://www.w3.org/2000/svg" xmlns:xlink="http://www.w3.org/1999/xlink"><symbol viewBox="0 0 800 800" id="dribbble" xmlns="http://www.w3.org/2000/svg"><path d="M400 665c-146 0-265-119-265-265s119-265 265-265 265 119 265 265-119 265-265 265zm223-229s-69-22-140-9c30 81 43 161 43 161s82-49 97-152zM488 609s-15-90-48-172c-132 44-179 142-179 142s96 83 227 30zm-256-57c80-128 193-152 193-152s-12-27-19-39c-124 37-232 32-232 32s-8 87 58 159zm-54-198s102 2 210-28c-38-71-84-130-84-130-107 49-126 158-126 158zm169-174s50 65 85 134c84-31 118-83 118-83s-76-78-203-51zm102 167c6 11 20 44 20 44s64-11 157 7c0-85-51-141-51-141s-38 55-126 90z"/></symbol><symbol viewBox="0 0 800 800" id="facebook" xmlns="http://www.w3.org/2000/svg"><path d="M445 643h-90V419h-75v-87h75v-64q0-55 32-86 30-29 80-29 28 0 67 3v78h-47q-42 0-42 38v60h86l-11 87h-75v224z"/></symbol><symbol viewBox="0 0 800 800" id="googleplus" xmlns="http://www.w3.org/2000/svg"><path d="M487 370c21 129-62 237-195 237-114 0-207-93-207-207s93-207 207-207c89 0 138 54 138 54l-56 54s-29-32-82-32c-71 0-128 59-128 131 0 73 57 131 128 131 81 0 113-58 117-90H292v-71h195zm189-59v59h59v60h-59v59h-59v-59h-59v-60h59v-59h59z"/></symbol><symbol viewBox="0 0 800 800" id="twitter" xmlns="http://www.w3.org/2000/svg"><path d="M679 239s-21 34-55 57c7 156-107 329-314 329-103 0-169-50-169-50s81 17 163-45c-83-5-103-77-103-77s23 6 50-2c-93-23-89-110-89-110s23 14 50 14c-84-65-34-148-34-148s76 107 228 116c-22-121 117-177 188-101 37-6 71-27 71-27s-12 41-49 61c30-2 63-17 63-17z"/></symbol></svg>